<svg width="32" height="32" viewBox="0 0 32 32" fill="none" xmlns="http://www.w3.org/2000/svg">
<g clip-path="url(#clip0_6_2)">
<circle cx="16" cy="16" r="16" fill="url(#paint0_linear_6_2)"/>
<path d="M18.872 12.432C18.872 13.328 18.656 14.168 18.224 14.952C17.808 15.736 17.144 16.368 16.232 16.848C15.336 17.328 14.2 17.568 12.824 17.568H10.016V24H6.656V7.248H12.824C14.12 7.248 15.224 7.472 16.136 7.92C17.048 8.368 17.728 8.984 18.176 9.768C18.64 10.552 18.872 11.44 18.872 12.432ZM12.68 14.856C13.608 14.856 14.296 14.648 14.744 14.232C15.192 13.8 15.416 13.2 15.416 12.432C15.416 10.8 14.504 9.984 12.68 9.984H10.016V14.856H12.68ZM23.5616 6.96L23.1776 18.552H20.3456L19.9376 6.96H23.5616ZM21.8336 24.168C21.2256 24.168 20.7216 23.984 20.3216 23.616C19.9376 23.232 19.7456 22.76 19.7456 22.2C19.7456 21.64 19.9376 21.176 20.3216 20.808C20.7216 20.424 21.2256 20.232 21.8336 20.232C22.4256 20.232 22.9136 20.424 23.2976 20.808C23.6816 21.176 23.8736 21.64 23.8736 22.2C23.8736 22.76 23.6816 23.232 23.2976 23.616C22.9136 23.984 22.4256 24.168 21.8336 24.168Z" fill="white"/>
</g>
<defs>
<linearGradient id="paint0_linear_6_2" x1="6.04325e-08" y1="0.666667" x2="32" y2="32" gradientUnits="userSpaceOnUse">
<stop stop-color="#67E8F9"/>
<stop offset="0.510417" stop-color="#E879F9"/>
<stop offset="1" stop-color="#8B5CF6"/>
</linearGradient>
<clipPath id="clip0_6_2">
<rect width="32" height="32" fill="white"/>
</clipPath>
</defs>
</svg>
