<svg width="64" height="64" viewBox="0 0 64 64" fill="none" xmlns="http://www.w3.org/2000/svg">
<g clip-path="url(#clip0_8_2)">
<circle cx="32" cy="32" r="32" fill="url(#paint0_linear_8_2)"/>
<path d="M38.744 25.864C38.744 27.656 38.312 29.336 37.448 30.904C36.616 32.472 35.288 33.736 33.464 34.696C31.672 35.656 29.4 36.136 26.648 36.136H21.032V49H14.312V15.496H26.648C29.24 15.496 31.448 15.944 33.272 16.84C35.096 17.736 36.456 18.968 37.352 20.536C38.28 22.104 38.744 23.88 38.744 25.864ZM26.36 30.712C28.216 30.712 29.592 30.296 30.488 29.464C31.384 28.6 31.832 27.4 31.832 25.864C31.832 22.6 30.008 20.968 26.36 20.968H21.032V30.712H26.36ZM48.1231 14.92L47.3551 38.104H41.6911L40.8751 14.92H48.1231ZM44.6671 49.336C43.4511 49.336 42.4431 48.968 41.6431 48.232C40.8751 47.464 40.4911 46.52 40.4911 45.4C40.4911 44.28 40.8751 43.352 41.6431 42.616C42.4431 41.848 43.4511 41.464 44.6671 41.464C45.8511 41.464 46.8271 41.848 47.5951 42.616C48.3631 43.352 48.7471 44.28 48.7471 45.4C48.7471 46.52 48.3631 47.464 47.5951 48.232C46.8271 48.968 45.8511 49.336 44.6671 49.336Z" fill="white"/>
</g>
<defs>
<linearGradient id="paint0_linear_8_2" x1="1.20865e-07" y1="1.33333" x2="64" y2="64" gradientUnits="userSpaceOnUse">
<stop stop-color="#67E8F9"/>
<stop offset="0.510417" stop-color="#E879F9"/>
<stop offset="1" stop-color="#8B5CF6"/>
</linearGradient>
<clipPath id="clip0_8_2">
<rect width="64" height="64" fill="white"/>
</clipPath>
</defs>
</svg>
